<svg width="16" height="16" viewBox="0 0 16 16" fill="none" xmlns="http://www.w3.org/2000/svg">
<path d="M10.5 8C10.5 8.49445 10.3534 8.9778 10.0787 9.38893C9.804 9.80005 9.41356 10.1205 8.95674 10.3097C8.49993 10.4989 7.99726 10.5484 7.51231 10.452C7.02736 10.3555 6.5819 10.1174 6.23227 9.76777C5.88264 9.41814 5.64453 8.97268 5.54807 8.48773C5.45161 8.00277 5.50112 7.50011 5.69033 7.04329C5.87955 6.58648 6.19999 6.19603 6.61111 5.92133C7.02223 5.64662 7.50558 5.5 8.00003 5.5C8.66307 5.5 9.29896 5.76339 9.7678 6.23223C10.2366 6.70107 10.5 7.33696 10.5 8ZM13 8C13.0015 6.76991 12.5481 5.58273 11.7269 4.66687C11.6835 4.61676 11.6305 4.57578 11.571 4.54634C11.5116 4.5169 11.4469 4.49958 11.3807 4.49539C11.3145 4.4912 11.2481 4.50022 11.1855 4.52193C11.1228 4.54364 11.065 4.5776 11.0156 4.62184C10.9662 4.66608 10.9261 4.71971 10.8976 4.77961C10.8691 4.83951 10.8528 4.90448 10.8497 4.97073C10.8465 5.03699 10.8566 5.10321 10.8793 5.16553C10.902 5.22785 10.9369 5.28504 10.9819 5.33375C11.6378 6.0671 12.0004 7.01645 12.0004 8.00031C12.0004 8.98417 11.6378 9.93352 10.9819 10.6669C10.8959 10.766 10.8524 10.895 10.8607 11.026C10.869 11.157 10.9284 11.2794 11.0262 11.3669C11.124 11.4545 11.2523 11.5 11.3834 11.4938C11.5145 11.4876 11.6378 11.4301 11.7269 11.3337C12.548 10.4176 13.0014 9.23025 13 8ZM5.01816 5.33375C5.06318 5.28504 5.09805 5.22785 5.12076 5.16553C5.14346 5.10321 5.15354 5.03699 5.1504 4.97073C5.14726 4.90448 5.13097 4.83951 5.10248 4.77961C5.07399 4.71971 5.03386 4.66608 4.98444 4.62184C4.93502 4.5776 4.87729 4.54364 4.81461 4.52193C4.75193 4.50022 4.68556 4.4912 4.61937 4.49539C4.55317 4.49958 4.48847 4.5169 4.42903 4.54634C4.36959 4.57578 4.31661 4.61676 4.27316 4.66687C3.4524 5.58321 2.99856 6.77014 2.99856 8.00031C2.99856 9.23048 3.4524 10.4174 4.27316 11.3337C4.36223 11.4301 4.48562 11.4876 4.6167 11.4938C4.74779 11.5 4.87606 11.4545 4.97384 11.3669C5.07162 11.2794 5.13107 11.157 5.13936 11.026C5.14765 10.895 5.10412 10.766 5.01816 10.6669C4.36163 9.93384 3.99861 8.98437 3.99861 8.00031C3.99861 7.01626 4.36163 6.06679 5.01816 5.33375ZM14.9107 5.08375C14.5447 4.21471 14.0175 3.42284 13.3569 2.75C13.3114 2.70132 13.2566 2.66223 13.1957 2.63504C13.1348 2.60785 13.0692 2.5931 13.0025 2.59166C12.9359 2.59022 12.8696 2.60213 12.8077 2.62667C12.7457 2.65121 12.6892 2.6879 12.6416 2.73457C12.5941 2.78124 12.5563 2.83696 12.5305 2.89845C12.5048 2.95993 12.4916 3.02595 12.4917 3.0926C12.4919 3.15926 12.5054 3.22522 12.5314 3.28659C12.5574 3.34797 12.5954 3.40353 12.6432 3.45C13.8349 4.66415 14.5025 6.29748 14.5025 7.99875C14.5025 9.70002 13.8349 11.3334 12.6432 12.5475C12.597 12.5944 12.5606 12.6499 12.5359 12.7108C12.5112 12.7718 12.4988 12.837 12.4993 12.9027C12.4998 12.9685 12.5133 13.0335 12.539 13.094C12.5646 13.1546 12.6019 13.2095 12.6488 13.2556C12.6956 13.3018 12.7511 13.3382 12.8121 13.3629C12.873 13.3876 12.9383 13.4 13.004 13.3995C13.0698 13.3989 13.1348 13.3855 13.1953 13.3598C13.2559 13.3342 13.3108 13.2969 13.3569 13.25C14.392 12.1929 15.0918 10.8535 15.3682 9.40009C15.6446 7.94664 15.4855 6.44391 14.9107 5.08062V5.08375ZM2.01066 10.53C1.51106 9.349 1.3723 8.04652 1.61189 6.78677C1.85147 5.52702 2.45866 4.36641 3.35691 3.45125C3.4499 3.3566 3.50148 3.22889 3.50031 3.09621C3.49914 2.96352 3.44531 2.83674 3.35066 2.74375C3.25601 2.65076 3.1283 2.59917 2.99561 2.60035C2.86293 2.60152 2.73615 2.65535 2.64316 2.75C1.26702 4.15095 0.495972 6.03622 0.495972 8C0.495972 9.96378 1.26702 11.849 2.64316 13.25C2.68869 13.2987 2.7435 13.3378 2.80436 13.365C2.86522 13.3922 2.9309 13.4069 2.99754 13.4083C3.06418 13.4098 3.13044 13.3979 3.19242 13.3733C3.25439 13.3488 3.31083 13.3121 3.35842 13.2654C3.40601 13.2188 3.44379 13.163 3.46953 13.1016C3.49528 13.0401 3.50847 12.9741 3.50832 12.9074C3.50818 12.8407 3.49472 12.7748 3.46871 12.7134C3.44271 12.652 3.4047 12.5965 3.35691 12.55C2.78484 11.9676 2.32806 11.2822 2.01066 10.53Z" fill="#557F85"/>
</svg>
