<svg width="16" height="12" viewBox="0 0 16 12" fill="none" xmlns="http://www.w3.org/2000/svg">
<path d="M15 4.5H14.325L12.5887 0.59375C12.5102 0.417017 12.382 0.266862 12.2199 0.161478C12.0577 0.0560935 11.8684 2.31512e-06 11.675 0H4.325C4.13159 2.31512e-06 3.94233 0.0560935 3.78014 0.161478C3.61796 0.266862 3.48982 0.417017 3.41125 0.59375L1.675 4.5H1C0.867392 4.5 0.740215 4.55268 0.646447 4.64645C0.552678 4.74021 0.5 4.86739 0.5 5C0.5 5.13261 0.552678 5.25979 0.646447 5.35355C0.740215 5.44732 0.867392 5.5 1 5.5H1.5V10.5C1.5 10.7652 1.60536 11.0196 1.79289 11.2071C1.98043 11.3946 2.23478 11.5 2.5 11.5H4C4.26522 11.5 4.51957 11.3946 4.70711 11.2071C4.89464 11.0196 5 10.7652 5 10.5V10H11V10.5C11 10.7652 11.1054 11.0196 11.2929 11.2071C11.4804 11.3946 11.7348 11.5 12 11.5H13.5C13.7652 11.5 14.0196 11.3946 14.2071 11.2071C14.3946 11.0196 14.5 10.7652 14.5 10.5V5.5H15C15.1326 5.5 15.2598 5.44732 15.3536 5.35355C15.4473 5.25979 15.5 5.13261 15.5 5C15.5 4.86739 15.4473 4.74021 15.3536 4.64645C15.2598 4.55268 15.1326 4.5 15 4.5ZM5 7.5H3.5C3.36739 7.5 3.24021 7.44732 3.14645 7.35355C3.05268 7.25979 3 7.13261 3 7C3 6.86739 3.05268 6.74021 3.14645 6.64645C3.24021 6.55268 3.36739 6.5 3.5 6.5H5C5.13261 6.5 5.25979 6.55268 5.35355 6.64645C5.44732 6.74021 5.5 6.86739 5.5 7C5.5 7.13261 5.44732 7.25979 5.35355 7.35355C5.25979 7.44732 5.13261 7.5 5 7.5ZM12.5 7.5H11C10.8674 7.5 10.7402 7.44732 10.6464 7.35355C10.5527 7.25979 10.5 7.13261 10.5 7C10.5 6.86739 10.5527 6.74021 10.6464 6.64645C10.7402 6.55268 10.8674 6.5 11 6.5H12.5C12.6326 6.5 12.7598 6.55268 12.8536 6.64645C12.9473 6.74021 13 6.86739 13 7C13 7.13261 12.9473 7.25979 12.8536 7.35355C12.7598 7.44732 12.6326 7.5 12.5 7.5ZM2.76938 4.5L4.325 1H11.675L13.2306 4.5H2.76938Z" fill="#9EADAE"/>
</svg>
