<svg width="16" height="16" viewBox="0 0 16 16" fill="none" xmlns="http://www.w3.org/2000/svg">
<path d="M13 5.99999C13 5.85165 13.044 5.70665 13.1264 5.58331C13.2088 5.45998 13.3259 5.36385 13.463 5.30708C13.6 5.25031 13.7508 5.23546 13.8963 5.2644C14.0418 5.29334 14.1754 5.36477 14.2803 5.46966C14.3852 5.57455 14.4567 5.70819 14.4856 5.85367C14.5145 5.99916 14.4997 6.14996 14.4429 6.287C14.3861 6.42405 14.29 6.54118 14.1667 6.62359C14.0433 6.706 13.8983 6.74999 13.75 6.74999C13.5511 6.74999 13.3603 6.67097 13.2197 6.53032C13.079 6.38967 13 6.1989 13 5.99999ZM12.25 4.49999C12.3983 4.49999 12.5433 4.456 12.6667 4.37359C12.79 4.29118 12.8861 4.17405 12.9429 4.037C12.9997 3.89996 13.0145 3.74916 12.9856 3.60367C12.9567 3.45819 12.8852 3.32455 12.7803 3.21966C12.6754 3.11477 12.5418 3.04334 12.3963 3.0144C12.2508 2.98546 12.1 3.00031 11.963 3.05708C11.8259 3.11385 11.7088 3.20998 11.6264 3.33331C11.544 3.45665 11.5 3.60165 11.5 3.74999C11.5 3.9489 11.579 4.13967 11.7197 4.28032C11.8603 4.42097 12.0511 4.49999 12.25 4.49999ZM14.0413 7.99999C13.9092 7.9891 13.7781 8.0311 13.677 8.11677C13.5758 8.20244 13.5129 8.32477 13.5019 8.45686C13.4124 9.50215 13.0262 10.5001 12.3888 11.3334C11.7514 12.1667 10.8892 12.8005 9.90378 13.1604C8.91833 13.5203 7.85059 13.5913 6.82619 13.3649C5.80179 13.1386 4.86335 12.6243 4.12128 11.8827C3.37921 11.1411 2.8644 10.203 2.63741 9.17876C2.41041 8.15451 2.48069 7.08672 2.83996 6.10105C3.19924 5.11537 3.83256 4.25282 4.66542 3.61487C5.49828 2.97692 6.49602 2.59013 7.54125 2.49999C7.60691 2.49457 7.67086 2.47628 7.72945 2.44614C7.78804 2.41601 7.84012 2.37463 7.88272 2.32437C7.92532 2.27412 7.9576 2.21596 7.97773 2.15322C7.99785 2.09049 8.00542 2.0244 8 1.95874C7.99459 1.89308 7.97629 1.82913 7.94616 1.77054C7.91602 1.71195 7.87465 1.65987 7.82439 1.61727C7.77413 1.57467 7.71597 1.54239 7.65323 1.52226C7.5905 1.50214 7.52441 1.49457 7.45875 1.49999C6.22377 1.60622 5.04481 2.06295 4.06059 2.81646C3.07637 3.56997 2.32782 4.5889 1.90302 5.75338C1.47822 6.91786 1.39484 8.17945 1.66268 9.38971C1.93053 10.6 2.53846 11.7086 3.41495 12.585C4.29144 13.4615 5.40002 14.0695 6.61028 14.3373C7.82054 14.6052 9.08213 14.5218 10.2466 14.097C11.4111 13.6722 12.43 12.9236 13.1835 11.9394C13.937 10.9552 14.3938 9.77622 14.5 8.54124C14.5056 8.47553 14.4982 8.40936 14.4782 8.34653C14.4582 8.2837 14.4259 8.22545 14.3833 8.17515C14.3406 8.12484 14.2885 8.08346 14.2298 8.0534C14.1711 8.02334 14.107 8.00519 14.0413 7.99999ZM8 3.49999C8.89002 3.49999 9.76005 3.76391 10.5001 4.25838C11.2401 4.75284 11.8169 5.45565 12.1575 6.27791C12.4981 7.10018 12.5872 8.00498 12.4135 8.8779C12.2399 9.75081 11.8113 10.5526 11.182 11.182C10.5526 11.8113 9.75082 12.2399 8.87791 12.4135C8.00499 12.5872 7.10019 12.498 6.27793 12.1574C5.45566 11.8169 4.75285 11.2401 4.25839 10.5001C3.76392 9.76003 3.5 8.89001 3.5 7.99999C3.50133 6.80692 3.97586 5.6631 4.81948 4.81947C5.66311 3.97584 6.80693 3.50131 8 3.49999ZM7.5 7.99999C7.5 8.1326 7.55268 8.25978 7.64645 8.35354C7.74022 8.44731 7.86739 8.49999 8 8.49999H11C11.1326 8.49999 11.2598 8.44731 11.3536 8.35354C11.4473 8.25978 11.5 8.1326 11.5 7.99999C11.5 7.86738 11.4473 7.7402 11.3536 7.64644C11.2598 7.55267 11.1326 7.49999 11 7.49999H8.5V4.99999C8.5 4.86738 8.44732 4.7402 8.35356 4.64644C8.25979 4.55267 8.13261 4.49999 8 4.49999C7.86739 4.49999 7.74022 4.55267 7.64645 4.64644C7.55268 4.7402 7.5 4.86738 7.5 4.99999V7.99999ZM10 2.99999C10.1483 2.99999 10.2933 2.956 10.4167 2.87359C10.54 2.79118 10.6361 2.67405 10.6929 2.537C10.7497 2.39996 10.7645 2.24916 10.7356 2.10367C10.7067 1.95819 10.6352 1.82455 10.5303 1.71966C10.4254 1.61477 10.2918 1.54334 10.1463 1.5144C10.0008 1.48546 9.85003 1.50031 9.71299 1.55708C9.57594 1.61385 9.45881 1.70998 9.3764 1.83331C9.29399 1.95665 9.25 2.10165 9.25 2.24999C9.25 2.4489 9.32902 2.63967 9.46967 2.78032C9.61032 2.92097 9.80109 2.99999 10 2.99999Z" fill="#55471B"/>
</svg>
