<svg width="14" height="14" viewBox="0 0 14 14" fill="none" xmlns="http://www.w3.org/2000/svg">
<path d="M11.6667 5C11.6667 4.85167 11.7107 4.70666 11.7931 4.58333C11.8756 4.45999 11.9927 4.36386 12.1297 4.3071C12.2668 4.25033 12.4176 4.23548 12.5631 4.26442C12.7086 4.29335 12.8422 4.36479 12.9471 4.46967C13.052 4.57456 13.1234 4.7082 13.1523 4.85369C13.1813 4.99917 13.1664 5.14997 13.1097 5.28702C13.0529 5.42406 12.9568 5.5412 12.8334 5.62361C12.7101 5.70602 12.5651 5.75 12.4167 5.75C12.2178 5.75 12.0271 5.67099 11.8864 5.53033C11.7458 5.38968 11.6667 5.19892 11.6667 5ZM10.9167 3.50001C11.0651 3.50001 11.2101 3.45602 11.3334 3.37361C11.4568 3.2912 11.5529 3.17406 11.6097 3.03702C11.6664 2.89997 11.6813 2.74917 11.6523 2.60369C11.6234 2.4582 11.552 2.32456 11.4471 2.21967C11.3422 2.11479 11.2086 2.04335 11.0631 2.01442C10.9176 1.98548 10.7668 2.00033 10.6297 2.0571C10.4927 2.11386 10.3756 2.20999 10.2931 2.33333C10.2107 2.45666 10.1667 2.60167 10.1667 2.75001C10.1667 2.94892 10.2458 3.13968 10.3864 3.28034C10.5271 3.42099 10.7178 3.50001 10.9167 3.50001ZM12.708 7C12.5759 6.98911 12.4449 7.03112 12.3437 7.11679C12.2426 7.20246 12.1796 7.32479 12.1686 7.45688C12.0791 8.50217 11.693 9.50015 11.0556 10.3334C10.4181 11.1667 9.55597 11.8005 8.57053 12.1604C7.58508 12.5203 6.51734 12.5913 5.49294 12.3649C4.46854 12.1386 3.53009 11.6244 2.78803 10.8828C2.04596 10.1412 1.53115 9.20304 1.30415 8.17878C1.07716 7.15452 1.14744 6.08674 1.50671 5.10106C1.86598 4.11539 2.49931 3.25283 3.33217 2.61489C4.16503 1.97694 5.16277 1.59014 6.208 1.50001C6.27366 1.49459 6.33761 1.47629 6.3962 1.44616C6.45479 1.41603 6.50687 1.37465 6.54947 1.32439C6.59207 1.27413 6.62435 1.21597 6.64448 1.15324C6.6646 1.0905 6.67217 1.02442 6.66675 0.958755C6.66133 0.893094 6.64304 0.829143 6.6129 0.770553C6.58277 0.711963 6.54139 0.659882 6.49114 0.617283C6.44088 0.574685 6.38272 0.542402 6.31998 0.522279C6.25725 0.502157 6.19116 0.494588 6.1255 0.500005C4.89052 0.606234 3.71156 1.06297 2.72734 1.81648C1.74311 2.56999 0.994569 3.58892 0.569769 4.7534C0.144969 5.91788 0.0615863 7.17946 0.329431 8.38972C0.597275 9.59998 1.2052 10.7086 2.08169 11.5851C2.95818 12.4616 4.06677 13.0695 5.27703 13.3373C6.48729 13.6052 7.74887 13.5218 8.91335 13.097C10.0778 12.6722 11.0968 11.9236 11.8503 10.9394C12.6038 9.95519 13.0605 8.77624 13.1667 7.54125C13.1724 7.47555 13.165 7.40938 13.145 7.34655C13.1249 7.28372 13.0927 7.22547 13.05 7.17516C13.0074 7.12485 12.9552 7.08348 12.8965 7.05342C12.8378 7.02336 12.7737 7.0052 12.708 7ZM6.66675 2.50001C7.55677 2.50001 8.4268 2.76393 9.16682 3.25839C9.90684 3.75286 10.4836 4.45566 10.8242 5.27793C11.1648 6.1002 11.2539 7.005 11.0803 7.87791C10.9067 8.75083 10.4781 9.55265 9.84873 10.182C9.21939 10.8113 8.41757 11.2399 7.54466 11.4135C6.67174 11.5872 5.76694 11.4981 4.94467 11.1575C4.12241 10.8169 3.4196 10.2401 2.92514 9.50007C2.43067 8.76005 2.16675 7.89002 2.16675 7C2.16807 5.80694 2.6426 4.66311 3.48623 3.81949C4.32986 2.97586 5.47368 2.50133 6.66675 2.50001ZM6.16675 7C6.16675 7.13261 6.21943 7.25979 6.3132 7.35356C6.40696 7.44733 6.53414 7.5 6.66675 7.5H9.66675C9.79936 7.5 9.92654 7.44733 10.0203 7.35356C10.1141 7.25979 10.1667 7.13261 10.1667 7C10.1667 6.8674 10.1141 6.74022 10.0203 6.64645C9.92654 6.55268 9.79936 6.5 9.66675 6.5H7.16675V4.00001C7.16675 3.8674 7.11407 3.74022 7.0203 3.64645C6.92654 3.55268 6.79936 3.50001 6.66675 3.50001C6.53414 3.50001 6.40696 3.55268 6.3132 3.64645C6.21943 3.74022 6.16675 3.8674 6.16675 4.00001V7ZM8.66675 2.00001C8.81509 2.00001 8.96009 1.95602 9.08343 1.87361C9.20676 1.7912 9.30289 1.67406 9.35966 1.53702C9.41642 1.39997 9.43128 1.24917 9.40234 1.10369C9.3734 0.958202 9.30197 0.824564 9.19708 0.719675C9.09219 0.614786 8.95855 0.543355 8.81307 0.514416C8.66758 0.485477 8.51678 0.50033 8.37974 0.557095C8.24269 0.613861 8.12556 0.70999 8.04315 0.833327C7.96074 0.956664 7.91675 1.10167 7.91675 1.25001C7.91675 1.44892 7.99577 1.63968 8.13642 1.78034C8.27707 1.92099 8.46784 2.00001 8.66675 2.00001Z" fill="#55471B"/>
</svg>
