<svg width="20" height="20" viewBox="0 0 20 20" fill="none" xmlns="http://www.w3.org/2000/svg">
<path d="M7.02439 1.47344C6.99956 1.37803 6.99379 1.27865 7.00741 1.181C7.02102 1.08336 7.05376 0.98935 7.10374 0.904365C7.15372 0.819381 7.21996 0.745085 7.29869 0.685727C7.37741 0.62637 7.46706 0.583116 7.56252 0.558441C9.16136 0.146088 10.8387 0.146088 12.4375 0.558441C12.6146 0.603782 12.769 0.71224 12.8718 0.863432C12.9746 1.01462 13.0185 1.19814 12.9955 1.37948C12.9725 1.56083 12.884 1.72753 12.7467 1.84824C12.6095 1.96895 12.4328 2.03536 12.25 2.035C12.1867 2.03467 12.1238 2.02649 12.0625 2.01063C10.7097 1.6617 9.29038 1.6617 7.93752 2.01063C7.7452 2.06024 7.54107 2.03154 7.36988 1.93084C7.1987 1.83013 7.07445 1.66564 7.02439 1.47344ZM3.04283 3.16938C1.88656 4.34681 1.0479 5.79834 0.605329 7.38813C0.552245 7.57983 0.577487 7.78477 0.675504 7.95786C0.773521 8.13095 0.936284 8.25801 1.12799 8.3111C1.31969 8.36418 1.52463 8.33894 1.69772 8.24092C1.87081 8.14291 1.99787 7.98014 2.05095 7.78844C2.42508 6.44273 3.13475 5.21403 4.11345 4.2175C4.24147 4.07351 4.30915 3.88577 4.30248 3.69321C4.2958 3.50065 4.21528 3.31805 4.0776 3.18326C3.93992 3.04848 3.75565 2.97185 3.56299 2.96926C3.37034 2.96668 3.18408 3.03834 3.04283 3.16938ZM2.05095 12.2078C2.02461 12.1129 1.97982 12.0241 1.91916 11.9465C1.85849 11.8689 1.78313 11.804 1.69738 11.7555C1.61163 11.707 1.51718 11.6759 1.4194 11.6639C1.32162 11.6519 1.22244 11.6593 1.12752 11.6856C1.0326 11.712 0.943793 11.7568 0.86618 11.8174C0.788567 11.8781 0.723662 11.9535 0.675173 12.0392C0.626683 12.1249 0.595558 12.2194 0.583574 12.3172C0.57159 12.415 0.578983 12.5141 0.605329 12.6091C1.04816 14.1987 1.88679 15.6502 3.04283 16.8278C3.18232 16.9697 3.37244 17.0503 3.57138 17.052C3.77031 17.0536 3.96176 16.9762 4.10361 16.8367C4.24546 16.6972 4.32609 16.5071 4.32776 16.3082C4.32943 16.1092 4.252 15.9178 4.11252 15.7759C3.13502 14.7798 2.42578 13.5522 2.05095 12.2078ZM12.0625 17.9894C10.7097 18.3387 9.29033 18.3387 7.93752 17.9894C7.84161 17.963 7.74142 17.956 7.64279 17.9688C7.54415 17.9815 7.44903 18.0138 7.36297 18.0636C7.27691 18.1135 7.20163 18.18 7.1415 18.2592C7.08137 18.3384 7.0376 18.4288 7.01273 18.5251C6.98786 18.6214 6.9824 18.7217 6.99665 18.8201C7.01091 18.9185 7.04459 19.0131 7.09576 19.0984C7.14692 19.1837 7.21454 19.258 7.29467 19.3169C7.3748 19.3758 7.46585 19.4182 7.56252 19.4416C9.16136 19.8539 10.8387 19.8539 12.4375 19.4416C12.6274 19.3894 12.7892 19.2647 12.8879 19.0943C12.9866 18.9239 13.0143 18.7215 12.9651 18.5308C12.9159 18.3402 12.7936 18.1765 12.6247 18.0752C12.4559 17.9739 12.2539 17.9431 12.0625 17.9894ZM18.8735 11.6875C18.7785 11.6612 18.6792 11.6538 18.5814 11.6658C18.4836 11.6779 18.3891 11.7091 18.3033 11.7576C18.2175 11.8062 18.1422 11.8712 18.0816 11.949C18.021 12.0267 17.9762 12.1156 17.95 12.2106C17.5761 13.5562 16.8664 14.7846 15.8875 15.7806C15.8185 15.8509 15.764 15.9341 15.7272 16.0255C15.6903 16.1168 15.6718 16.2146 15.6727 16.3131C15.6737 16.4116 15.694 16.5089 15.7325 16.5996C15.771 16.6902 15.8271 16.7724 15.8974 16.8414C15.9677 16.9104 16.0509 16.9649 16.1422 17.0018C16.2336 17.0386 16.3313 17.0571 16.4298 17.0562C16.5283 17.0553 16.6257 17.035 16.7163 16.9964C16.807 16.9579 16.8891 16.9019 16.9581 16.8316C18.1146 15.6543 18.9533 14.2027 19.3956 12.6128C19.4223 12.5178 19.4299 12.4184 19.4181 12.3204C19.4062 12.2224 19.3752 12.1277 19.3267 12.0417C19.2781 11.9558 19.2131 11.8802 19.1354 11.8195C19.0576 11.7587 18.9686 11.7138 18.8735 11.6875ZM17.9491 7.79313C17.9754 7.88805 18.0202 7.97685 18.0809 8.05447C18.1415 8.13208 18.2169 8.19698 18.3027 8.24547C18.3884 8.29396 18.4829 8.32509 18.5806 8.33707C18.6784 8.34906 18.7776 8.34166 18.8725 8.31532C18.9674 8.28897 19.0562 8.24419 19.1339 8.18352C19.2115 8.12285 19.2764 8.0475 19.3249 7.96175C19.3734 7.876 19.4045 7.78154 19.4165 7.68376C19.4284 7.58598 19.4211 7.4868 19.3947 7.39188C18.9523 5.80201 18.1136 4.35043 16.9572 3.17313C16.8881 3.10289 16.8059 3.04695 16.7152 3.00849C16.6245 2.97003 16.5272 2.94981 16.4287 2.94898C16.3302 2.94815 16.2325 2.96674 16.1411 3.00367C16.0498 3.0406 15.9667 3.09516 15.8964 3.16422C15.8262 3.23329 15.7702 3.31551 15.7318 3.4062C15.6933 3.49689 15.6731 3.59427 15.6723 3.69277C15.6714 3.79127 15.69 3.88897 15.727 3.98029C15.7639 4.07161 15.8185 4.15477 15.8875 4.225C16.8653 5.22058 17.5746 6.44791 17.9491 7.79219V7.79313Z" fill="#839697"/>
</svg>
