<svg width="21" height="20" viewBox="0 0 21 20" fill="none" xmlns="http://www.w3.org/2000/svg">
<path d="M17.375 3.125H3.625C3.29348 3.125 2.97554 3.2567 2.74112 3.49112C2.5067 3.72554 2.375 4.04348 2.375 4.375V15.625C2.375 15.9565 2.5067 16.2745 2.74112 16.5089C2.97554 16.7433 3.29348 16.875 3.625 16.875H17.375C17.7065 16.875 18.0245 16.7433 18.2589 16.5089C18.4933 16.2745 18.625 15.9565 18.625 15.625V4.375C18.625 4.04348 18.4933 3.72554 18.2589 3.49112C18.0245 3.2567 17.7065 3.125 17.375 3.125ZM3.625 4.375H17.375V7.5H3.625V4.375ZM17.375 15.625H9.25V8.75H17.375V15.625Z" fill="#2C4B51"/>
</svg>
