<svg width="13" height="12" viewBox="0 0 13 12" fill="none" xmlns="http://www.w3.org/2000/svg">
<path d="M12.9512 0.715L10.0994 6.70375C10.0964 6.71101 10.0931 6.7181 10.0894 6.725L7.95125 11.215C7.92404 11.2759 7.88493 11.3307 7.83621 11.3762C7.7875 11.4218 7.73017 11.4571 7.66759 11.4802C7.60501 11.5032 7.53846 11.5135 7.47184 11.5105C7.40523 11.5074 7.33989 11.4911 7.27969 11.4624C7.21949 11.4337 7.16563 11.3933 7.12129 11.3435C7.07695 11.2936 7.04303 11.2355 7.02151 11.1723C6.99999 11.1092 6.99131 11.0424 6.99599 10.9759C7.00067 10.9094 7.0186 10.8445 7.04875 10.785L8.85125 7H0.499997C0.401049 7.00008 0.304303 6.9708 0.222006 6.91586C0.139709 6.86092 0.075562 6.78281 0.0376858 6.69139C-0.000190482 6.59998 -0.0100928 6.49939 0.00923241 6.40235C0.0285576 6.3053 0.0762414 6.21618 0.146247 6.14625L2.79312 3.5L0.146247 0.85375C0.0762414 0.783822 0.0285576 0.694696 0.00923241 0.597654C-0.0100928 0.500611 -0.000190482 0.400017 0.0376858 0.308605C0.075562 0.217194 0.139709 0.139075 0.222006 0.08414C0.304303 0.0292046 0.401049 -7.77138e-05 0.499997 1.549e-07H12.5C12.5844 2.79119e-05 12.6674 0.0214217 12.7413 0.0621878C12.8152 0.102954 12.8776 0.161766 12.9227 0.233143C12.9677 0.30452 12.994 0.386139 12.999 0.470394C13.004 0.554649 12.9875 0.638798 12.9512 0.715Z" fill="#9EADAE"/>
</svg>
