<svg width="20" height="20" viewBox="0 0 20 20" fill="none" xmlns="http://www.w3.org/2000/svg">
<path d="M15.3538 8.35375L10.3538 13.3538C10.3073 13.4002 10.2522 13.4371 10.1915 13.4623C10.1308 13.4874 10.0657 13.5004 10 13.5004C9.93432 13.5004 9.86926 13.4874 9.80856 13.4623C9.74786 13.4371 9.69271 13.4002 9.64628 13.3538L4.64628 8.35375C4.57627 8.28382 4.52859 8.1947 4.50926 8.09765C4.48994 8.00061 4.49984 7.90002 4.53772 7.8086C4.57559 7.71719 4.63974 7.63908 4.72204 7.58414C4.80433 7.5292 4.90108 7.49992 5.00003 7.5H15C15.099 7.49992 15.1957 7.5292 15.278 7.58414C15.3603 7.63908 15.4245 7.71719 15.4623 7.8086C15.5002 7.90002 15.5101 8.00061 15.4908 8.09765C15.4715 8.1947 15.4238 8.28382 15.3538 8.35375Z" fill="#75979B"/>
</svg>
