<svg width="32" height="32" viewBox="0 0 32 32" fill="none" xmlns="http://www.w3.org/2000/svg">
<path d="M23.2807 22.2194C23.3504 22.289 23.4056 22.3718 23.4433 22.4628C23.4811 22.5539 23.5005 22.6514 23.5005 22.75C23.5005 22.8485 23.4811 22.9461 23.4433 23.0372C23.4056 23.1282 23.3504 23.2109 23.2807 23.2806C23.211 23.3503 23.1283 23.4056 23.0372 23.4433C22.9462 23.481 22.8486 23.5004 22.7501 23.5004C22.6515 23.5004 22.5539 23.481 22.4629 23.4433C22.3718 23.4056 22.2891 23.3503 22.2194 23.2806L16.0001 17.0603L9.78068 23.2806C9.63995 23.4213 9.44907 23.5004 9.25005 23.5004C9.05103 23.5004 8.86016 23.4213 8.71943 23.2806C8.5787 23.1399 8.49963 22.949 8.49963 22.75C8.49963 22.551 8.5787 22.3601 8.71943 22.2194L14.9397 16L8.71943 9.78061C8.5787 9.63988 8.49963 9.44901 8.49963 9.24999C8.49963 9.05097 8.5787 8.8601 8.71943 8.71936C8.86016 8.57863 9.05103 8.49957 9.25005 8.49957C9.44907 8.49957 9.63995 8.57863 9.78068 8.71936L16.0001 14.9397L22.2194 8.71936C22.3602 8.57863 22.551 8.49957 22.7501 8.49957C22.9491 8.49957 23.1399 8.57863 23.2807 8.71936C23.4214 8.8601 23.5005 9.05097 23.5005 9.24999C23.5005 9.44901 23.4214 9.63988 23.2807 9.78061L17.0604 16L23.2807 22.2194Z" fill="#557F85"/>
</svg>
