<svg width="12" height="14" viewBox="0 0 12 14" fill="none" xmlns="http://www.w3.org/2000/svg">
<path d="M6 0C4.54182 0.00165421 3.14383 0.581648 2.11274 1.61274C1.08165 2.64383 0.501654 4.04182 0.5 5.5C0.5 10.2063 5.5 13.7606 5.71313 13.9094C5.7972 13.9683 5.89735 13.9999 6 13.9999C6.10265 13.9999 6.2028 13.9683 6.28687 13.9094C6.5 13.7606 11.5 10.2063 11.5 5.5C11.4983 4.04182 10.9184 2.64383 9.88726 1.61274C8.85617 0.581648 7.45818 0.00165421 6 0ZM6 3.5C6.39556 3.5 6.78224 3.6173 7.11114 3.83706C7.44004 4.05682 7.69638 4.36918 7.84776 4.73463C7.99913 5.10009 8.03874 5.50222 7.96157 5.89018C7.8844 6.27814 7.69392 6.63451 7.41421 6.91421C7.13451 7.19392 6.77814 7.3844 6.39018 7.46157C6.00222 7.53874 5.60009 7.49913 5.23463 7.34776C4.86918 7.19638 4.55682 6.94004 4.33706 6.61114C4.1173 6.28224 4 5.89556 4 5.5C4 4.96957 4.21071 4.46086 4.58579 4.08579C4.96086 3.71071 5.46957 3.5 6 3.5Z" fill="#9EADAE"/>
</svg>
