<svg width="16" height="16" viewBox="0 0 16 16" fill="none" xmlns="http://www.w3.org/2000/svg">
<path d="M10.5 8C10.5 8.49445 10.3534 8.9778 10.0787 9.38893C9.80397 9.80005 9.41353 10.1205 8.95671 10.3097C8.4999 10.4989 7.99723 10.5484 7.51228 10.452C7.02732 10.3555 6.58187 10.1174 6.23224 9.76777C5.8826 9.41814 5.6445 8.97268 5.54804 8.48773C5.45158 8.00277 5.50108 7.50011 5.6903 7.04329C5.87952 6.58648 6.19995 6.19603 6.61108 5.92133C7.0222 5.64662 7.50555 5.5 8 5.5C8.66304 5.5 9.29893 5.76339 9.76777 6.23223C10.2366 6.70107 10.5 7.33696 10.5 8ZM13 8C13.0015 6.76991 12.5481 5.58273 11.7269 4.66687C11.6834 4.61676 11.6304 4.57578 11.571 4.54634C11.5116 4.5169 11.4469 4.49958 11.3807 4.49539C11.3145 4.4912 11.2481 4.50022 11.1854 4.52193C11.1227 4.54364 11.065 4.5776 11.0156 4.62184C10.9662 4.66608 10.926 4.71971 10.8976 4.77961C10.8691 4.83951 10.8528 4.90448 10.8496 4.97073C10.8465 5.03699 10.8566 5.10321 10.8793 5.16553C10.902 5.22785 10.9369 5.28504 10.9819 5.33375C11.6378 6.0671 12.0004 7.01645 12.0004 8.00031C12.0004 8.98417 11.6378 9.93352 10.9819 10.6669C10.8959 10.766 10.8524 10.895 10.8607 11.026C10.869 11.157 10.9284 11.2794 11.0262 11.3669C11.124 11.4545 11.2523 11.5 11.3833 11.4938C11.5144 11.4876 11.6378 11.4301 11.7269 11.3337C12.5479 10.4176 13.0014 9.23025 13 8ZM5.01813 5.33375C5.06315 5.28504 5.09802 5.22785 5.12073 5.16553C5.14343 5.10321 5.15351 5.03699 5.15037 4.97073C5.14723 4.90448 5.13094 4.83951 5.10245 4.77961C5.07396 4.71971 5.03383 4.66608 4.98441 4.62184C4.93499 4.5776 4.87726 4.54364 4.81458 4.52193C4.7519 4.50022 4.68553 4.4912 4.61934 4.49539C4.55314 4.49958 4.48844 4.5169 4.429 4.54634C4.36956 4.57578 4.31658 4.61676 4.27313 4.66687C3.45237 5.58321 2.99853 6.77014 2.99853 8.00031C2.99853 9.23048 3.45237 10.4174 4.27313 11.3337C4.3622 11.4301 4.48559 11.4876 4.61667 11.4938C4.74776 11.5 4.87603 11.4545 4.97381 11.3669C5.07159 11.2794 5.13104 11.157 5.13933 11.026C5.14762 10.895 5.10409 10.766 5.01813 10.6669C4.3616 9.93384 3.99858 8.98437 3.99858 8.00031C3.99858 7.01626 4.3616 6.06679 5.01813 5.33375ZM14.9106 5.08375C14.5447 4.21471 14.0175 3.42284 13.3569 2.75C13.3113 2.70132 13.2565 2.66223 13.1957 2.63504C13.1348 2.60785 13.0691 2.5931 13.0025 2.59166C12.9359 2.59022 12.8696 2.60213 12.8076 2.62667C12.7456 2.65121 12.6892 2.6879 12.6416 2.73457C12.594 2.78124 12.5562 2.83696 12.5305 2.89845C12.5048 2.95993 12.4916 3.02595 12.4917 3.0926C12.4919 3.15926 12.5053 3.22522 12.5313 3.28659C12.5573 3.34797 12.5953 3.40353 12.6431 3.45C13.8348 4.66415 14.5025 6.29748 14.5025 7.99875C14.5025 9.70002 13.8348 11.3334 12.6431 12.5475C12.597 12.5944 12.5606 12.6499 12.5359 12.7108C12.5112 12.7718 12.4988 12.837 12.4993 12.9027C12.4998 12.9685 12.5133 13.0335 12.5389 13.094C12.5646 13.1546 12.6019 13.2095 12.6488 13.2556C12.6956 13.3018 12.7511 13.3382 12.8121 13.3629C12.873 13.3876 12.9382 13.4 13.004 13.3995C13.0697 13.3989 13.1347 13.3855 13.1953 13.3598C13.2558 13.3342 13.3108 13.2969 13.3569 13.25C14.392 12.1929 15.0917 10.8535 15.3682 9.40009C15.6446 7.94664 15.4854 6.44391 14.9106 5.08062V5.08375ZM2.01063 10.53C1.51103 9.349 1.37227 8.04652 1.61186 6.78677C1.85144 5.52702 2.45863 4.36641 3.35688 3.45125C3.44987 3.3566 3.50145 3.22889 3.50028 3.09621C3.49911 2.96352 3.44528 2.83674 3.35063 2.74375C3.25598 2.65076 3.12827 2.59917 2.99558 2.60035C2.8629 2.60152 2.73612 2.65535 2.64313 2.75C1.26699 4.15095 0.495941 6.03622 0.495941 8C0.495941 9.96378 1.26699 11.849 2.64313 13.25C2.68866 13.2987 2.74347 13.3378 2.80433 13.365C2.86519 13.3922 2.93087 13.4069 2.99751 13.4083C3.06415 13.4098 3.13041 13.3979 3.19239 13.3733C3.25436 13.3488 3.3108 13.3121 3.35839 13.2654C3.40598 13.2188 3.44376 13.163 3.4695 13.1016C3.49525 13.0401 3.50843 12.9741 3.50829 12.9074C3.50815 12.8407 3.49468 12.7748 3.46868 12.7134C3.44268 12.652 3.40467 12.5965 3.35688 12.55C2.78481 11.9676 2.32803 11.2822 2.01063 10.53Z" fill="#839697"/>
</svg>
