<svg width="16" height="16" viewBox="0 0 16 16" fill="none" xmlns="http://www.w3.org/2000/svg">
<path d="M4.00751 9.2375C4.0092 9.27137 4.00399 9.30522 3.99219 9.33701C3.98039 9.3688 3.96224 9.39786 3.93885 9.42241C3.91547 9.44697 3.88733 9.46651 3.85616 9.47985C3.82498 9.49319 3.79142 9.50004 3.75751 9.5H1.00001C0.887154 9.50017 0.777562 9.46216 0.689053 9.39215C0.600543 9.32213 0.538322 9.22424 0.512507 9.11438C0.496432 9.03918 0.497174 8.96136 0.514677 8.88649C0.53218 8.81161 0.566014 8.74153 0.613757 8.68125C1.05489 8.09624 1.64019 7.63562 2.31251 7.34438C2.01734 7.07525 1.79095 6.73932 1.6523 6.36471C1.51366 5.9901 1.4668 5.58773 1.51564 5.19128C1.56448 4.79484 1.70761 4.41587 1.93303 4.08611C2.15845 3.75636 2.45961 3.48542 2.81128 3.29599C3.16294 3.10656 3.55488 3.00415 3.95426 2.99734C4.35365 2.99053 4.74885 3.07952 5.10676 3.25685C5.46468 3.43418 5.7749 3.6947 6.01143 4.01658C6.24797 4.33846 6.40393 4.71233 6.46626 5.10687C6.47431 5.15993 6.4648 5.21417 6.43919 5.26132C6.41358 5.30848 6.37327 5.34599 6.32438 5.36812C5.63088 5.68874 5.04355 6.20103 4.6317 6.84455C4.21985 7.48807 4.00066 8.23597 4.00001 9C4.00001 9.08 4.00001 9.15875 4.00751 9.2375ZM15.3825 8.68062C14.9424 8.09629 14.3584 7.63592 13.6875 7.34438C13.9827 7.07525 14.2091 6.73932 14.3477 6.36471C14.4864 5.9901 14.5332 5.58773 14.4844 5.19128C14.4355 4.79484 14.2924 4.41587 14.067 4.08611C13.8416 3.75636 13.5404 3.48542 13.1887 3.29599C12.8371 3.10656 12.4451 3.00415 12.0458 2.99734C11.6464 2.99053 11.2512 3.07952 10.8932 3.25685C10.5353 3.43418 10.2251 3.6947 9.98858 4.01658C9.75205 4.33846 9.59608 4.71233 9.53376 5.10687C9.52571 5.15993 9.53521 5.21417 9.56082 5.26132C9.58643 5.30848 9.62675 5.34599 9.67563 5.36812C10.3691 5.68874 10.9565 6.20103 11.3683 6.84455C11.7802 7.48807 11.9993 8.23597 12 9C12 9.08 12 9.15875 11.9925 9.2375C11.9908 9.27137 11.996 9.30522 12.0078 9.33701C12.0196 9.3688 12.0378 9.39786 12.0612 9.42241C12.0845 9.44697 12.1127 9.46651 12.1439 9.47985C12.175 9.49319 12.2086 9.50004 12.2425 9.5H15C15.1129 9.50017 15.2225 9.46216 15.311 9.39215C15.3995 9.32213 15.4617 9.22424 15.4875 9.11438C15.5037 9.03904 15.5029 8.96106 15.4853 8.88605C15.4677 8.81104 15.4337 8.74088 15.3856 8.68062H15.3825ZM9.82001 11.3794C10.3179 10.9981 10.6837 10.4704 10.8662 9.87047C11.0486 9.27053 11.0385 8.6285 10.8372 8.03462C10.6359 7.44073 10.2536 6.92485 9.74395 6.55948C9.23432 6.19411 8.62301 5.99761 7.99594 5.99761C7.36887 5.99761 6.75757 6.19411 6.24794 6.55948C5.73832 6.92485 5.35599 7.44073 5.1547 8.03462C4.95342 8.6285 4.94328 9.27053 5.12573 9.87047C5.30818 10.4704 5.67404 10.9981 6.17188 11.3794C5.28847 11.7621 4.5508 12.4177 4.06688 13.25C4.02299 13.326 3.99989 13.4122 3.99989 13.5C3.9999 13.5878 4.02301 13.674 4.06691 13.75C4.11081 13.8261 4.17394 13.8892 4.24997 13.9331C4.32599 13.9769 4.41223 14 4.50001 14H11.5C11.5878 14 11.674 13.9769 11.75 13.9331C11.8261 13.8892 11.8892 13.8261 11.9331 13.75C11.977 13.674 12.0001 13.5878 12.0001 13.5C12.0001 13.4122 11.977 13.326 11.9331 13.25C11.4482 12.4171 10.7091 11.7615 9.82438 11.3794H9.82001Z" fill="#839697"/>
</svg>
