<svg width="15" height="13" viewBox="0 0 15 13" fill="none" xmlns="http://www.w3.org/2000/svg">
<path d="M14.4667 10.7556L9.00112 1.26376C8.86454 1.03121 8.66956 0.838397 8.4355 0.704423C8.20144 0.570449 7.93644 0.499969 7.66675 0.499969C7.39706 0.499969 7.13205 0.570449 6.89799 0.704423C6.66393 0.838397 6.46895 1.03121 6.33237 1.26376L0.866747 10.7556C0.735332 10.9806 0.666077 11.2364 0.666077 11.4969C0.666077 11.7574 0.735332 12.0132 0.866747 12.2381C1.00158 12.4721 1.19623 12.666 1.43072 12.7998C1.66522 12.9337 1.93111 13.0028 2.20112 13H13.1324C13.4022 13.0026 13.6678 12.9334 13.9021 12.7995C14.1363 12.6656 14.3308 12.4719 14.4655 12.2381C14.5971 12.0133 14.6666 11.7576 14.6668 11.4971C14.667 11.2366 14.598 10.9807 14.4667 10.7556ZM7.16675 5.50001C7.16675 5.3674 7.21943 5.24023 7.31319 5.14646C7.40696 5.05269 7.53414 5.00001 7.66675 5.00001C7.79936 5.00001 7.92653 5.05269 8.0203 5.14646C8.11407 5.24023 8.16675 5.3674 8.16675 5.50001V8.00001C8.16675 8.13262 8.11407 8.2598 8.0203 8.35356C7.92653 8.44733 7.79936 8.50001 7.66675 8.50001C7.53414 8.50001 7.40696 8.44733 7.31319 8.35356C7.21943 8.2598 7.16675 8.13262 7.16675 8.00001V5.50001ZM7.66675 11C7.51841 11 7.37341 10.956 7.25007 10.8736C7.12673 10.7912 7.0306 10.6741 6.97384 10.537C6.91707 10.4 6.90222 10.2492 6.93116 10.1037C6.9601 9.95821 7.03153 9.82457 7.13642 9.71968C7.24131 9.61479 7.37494 9.54336 7.52043 9.51442C7.66592 9.48548 7.81671 9.50034 7.95376 9.5571C8.0908 9.61387 8.20794 9.71 8.29035 9.83333C8.37276 9.95667 8.41675 10.1017 8.41675 10.25C8.41675 10.4489 8.33773 10.6397 8.19708 10.7803C8.05642 10.921 7.86566 11 7.66675 11Z" fill="#55471B"/>
</svg>
